<svg width="24" height="25" viewBox="0 0 24 25" fill="none" xmlns="http://www.w3.org/2000/svg">
<rect y="0.5" width="24" height="24" rx="12" fill="white"/>
<path d="M5 7.05405C5 6.60359 5.15766 6.23197 5.47297 5.93919C5.78828 5.64639 6.1982 5.5 6.7027 5.5C7.1982 5.5 7.59909 5.64414 7.90541 5.93243C8.22072 6.22973 8.37838 6.61711 8.37838 7.09459C8.37838 7.52703 8.22523 7.88738 7.91892 8.17568C7.60361 8.47297 7.18919 8.62162 6.67568 8.62162H6.66216C6.16666 8.62162 5.76577 8.47297 5.45946 8.17568C5.15315 7.87838 5 7.5045 5 7.05405ZM5.17568 18.8784V9.85135H8.17568V18.8784H5.17568ZM9.83784 18.8784H12.8378V13.8378C12.8378 13.5225 12.8739 13.2793 12.9459 13.1081C13.0721 12.8018 13.2635 12.5428 13.5203 12.3311C13.777 12.1194 14.0991 12.0135 14.4865 12.0135C15.4955 12.0135 16 12.6937 16 14.0541V18.8784H19V13.7027C19 12.3694 18.6847 11.3581 18.0541 10.6689C17.4234 9.97973 16.5901 9.63513 15.5541 9.63513C14.3919 9.63513 13.4865 10.1351 12.8378 11.1351V11.1622H12.8243L12.8378 11.1351V9.85135H9.83784C9.85585 10.1396 9.86486 11.036 9.86486 12.5405C9.86486 14.045 9.85585 16.1576 9.83784 18.8784Z" fill="#003DA5"/>
</svg>
