<svg width="94" height="22" viewBox="0 0 94 22" fill="none" xmlns="http://www.w3.org/2000/svg">
<g clip-path="url(#clip0_2090_188)">
<path d="M0.5 21.5001H11.6828C13.9295 21.5001 15.7492 19.6812 15.7492 17.4355H0.5V21.5001Z" fill="white"/>
<path d="M3.5498 8.96777V13.0323H15.7492V17.4355H19.8157V14.0484C19.8157 11.2439 17.5384 8.96777 14.7326 8.96777H3.5498Z" fill="white"/>
<path d="M0.5 4.56452H15.7492V6.93548H19.8157V5.58065C19.8157 2.77613 17.5385 0.5 14.7326 0.5H0.5V4.56452Z" fill="white"/>
<path d="M37.437 0.5H33.3705V17.4355H27.2708V0.5H23.2043V14.7258C23.2043 18.4685 26.2372 21.5 29.9818 21.5H43.1978V17.4355H37.437V0.5Z" fill="white"/>
<path d="M47.2642 0.5H43.1978V17.4355H47.2642V0.5Z" fill="white"/>
<path d="M55.621 3.73047L58.3048 9.32257H57.2543L54.8145 4.10305H55.194L52.7541 9.32257H51.7036L54.3875 3.73047H55.6176H55.621ZM53.0252 8.03886V7.22595H56.9324V8.03886H53.0252Z" fill="white"/>
<path d="M64.2792 6.89108C64.2725 7.23995 64.2081 7.56511 64.0793 7.86995C63.9505 8.17479 63.7675 8.44575 63.5269 8.67946C63.2897 8.91317 62.9983 9.09608 62.6594 9.22817C62.3172 9.36027 61.9309 9.42462 61.4937 9.42462C61.0566 9.42462 60.6398 9.35688 60.2636 9.22479C59.8875 9.09269 59.5554 8.89962 59.2741 8.64559C58.9928 8.39156 58.776 8.09011 58.6201 7.73108C58.4676 7.37204 58.3896 6.96898 58.3896 6.52188C58.3896 6.07479 58.4676 5.67172 58.6235 5.31269C58.7794 4.95366 58.9996 4.65221 59.2843 4.39817C59.5689 4.14753 59.901 3.95446 60.2839 3.81898C60.6669 3.6835 61.0871 3.61914 61.5445 3.61914C62.1172 3.61914 62.6188 3.71398 63.0458 3.90027C63.4761 4.08656 63.8218 4.34059 64.0861 4.66575C64.3504 4.98753 64.5097 5.36011 64.5707 5.77672H63.571C63.5168 5.51253 63.3982 5.28559 63.2152 5.09253C63.0322 4.89946 62.8018 4.75043 62.5171 4.64543C62.2325 4.54043 61.9071 4.48962 61.5344 4.48962C61.0972 4.48962 60.7177 4.57091 60.3958 4.7335C60.0738 4.89608 59.8265 5.1264 59.6503 5.43124C59.474 5.73269 59.3859 6.0985 59.3859 6.52527C59.3859 6.95204 59.4774 7.32124 59.657 7.62946C59.8366 7.93769 60.0942 8.17479 60.4297 8.33737C60.7618 8.49995 61.1548 8.58462 61.6089 8.58462C62.063 8.58462 62.429 8.51011 62.7577 8.36108C63.0864 8.21204 63.344 8.00543 63.5337 7.73785C63.7235 7.47366 63.8252 7.16204 63.8387 6.80979L64.2792 6.89108ZM61.8021 7.31446V6.5693H64.6283V9.31963H63.8963L63.7777 7.00285L64.0081 7.31446H61.8021Z" fill="white"/>
<path d="M66.5259 8.4724V6.93805H70.2027V6.11837H66.5259V4.58063H70.3789V3.73047H65.5398V9.32257H70.4162V8.4724H66.5259Z" fill="white"/>
<path d="M76.631 8.72644L76.2278 8.77047V3.73047H77.1834V9.32257H75.9296L72.0054 4.28257L72.4019 4.23853V9.32257H71.4463V3.73047H72.7272L76.6276 8.72305L76.631 8.72644Z" fill="white"/>
<path d="M84.3335 7.10745C84.2827 7.56471 84.1234 7.96778 83.8523 8.32004C83.5812 8.67229 83.2254 8.94326 82.7883 9.13633C82.3511 9.32939 81.8496 9.42762 81.2905 9.42762C80.6635 9.42762 80.1146 9.30568 79.6435 9.06181C79.1725 8.81794 78.8031 8.47923 78.5388 8.04568C78.2745 7.61213 78.1423 7.10407 78.1423 6.52826C78.1423 5.95245 78.2745 5.44778 78.5388 5.01084C78.8031 4.57729 79.1691 4.2352 79.6435 3.99471C80.1146 3.75084 80.6669 3.62891 81.2905 3.62891C81.853 3.62891 82.3511 3.72713 82.7883 3.9202C83.2254 4.11326 83.5812 4.38423 83.8523 4.7331C84.1234 5.08197 84.2827 5.48504 84.3335 5.94907H83.3406C83.2864 5.651 83.1678 5.39358 82.9848 5.1802C82.8018 4.96681 82.568 4.80084 82.28 4.68568C81.9919 4.57052 81.6598 4.50955 81.2803 4.50955C80.8431 4.50955 80.4636 4.59084 80.1417 4.75681C79.8198 4.91939 79.5724 5.1531 79.3996 5.45794C79.2267 5.76278 79.1386 6.11842 79.1386 6.53165C79.1386 6.94487 79.2267 7.30052 79.3996 7.60536C79.5724 7.9102 79.8198 8.14052 80.1417 8.30649C80.4636 8.46907 80.8398 8.55375 81.2803 8.55375C81.6564 8.55375 81.9919 8.49616 82.28 8.381C82.568 8.26584 82.8018 8.09987 82.9848 7.88649C83.1678 7.66971 83.283 7.41229 83.3406 7.11423H84.3335V7.10745Z" fill="white"/>
<path d="M85.2349 3.73047H86.2176V9.32257H85.2349V3.73047Z" fill="white"/>
<path d="M90.8129 3.73047L93.4967 9.32257H92.4462L90.0064 4.10305H90.3859L87.946 9.32257H86.8955L89.5794 3.73047H90.8095H90.8129ZM88.2171 8.03886V7.22595H92.1243V8.03886H88.2171Z" fill="white"/>
<path d="M54.8078 12.4184C55.4448 12.4184 56.0006 12.5335 56.4818 12.7672C56.963 13.0009 57.3358 13.3261 57.6035 13.7461C57.8712 14.1661 58.0067 14.6538 58.0067 15.2093C58.0067 15.7648 57.8712 16.2526 57.6035 16.6726C57.3358 17.0926 56.9596 17.4177 56.4818 17.6514C56.0006 17.8851 55.4448 18.0003 54.8078 18.0003H52.2798V12.4082H54.8078V12.4184ZM53.2625 17.665L52.7169 17.1434H54.8722C55.2991 17.1434 55.6753 17.0621 55.9938 16.8995C56.3124 16.7369 56.5631 16.5134 56.7393 16.2221C56.9156 15.9308 57.0037 15.5955 57.0037 15.2127C57.0037 14.83 56.9156 14.4879 56.7393 14.2C56.5631 13.9121 56.3157 13.6885 55.9938 13.5259C55.6719 13.3634 55.2991 13.2821 54.8722 13.2821H52.7169L53.2625 12.7605V17.665Z" fill="white"/>
<path d="M58.9622 12.4189H59.9449V18.011H58.9622V12.4189Z" fill="white"/>
<path d="M66.8002 15.5786C66.7935 15.9275 66.7291 16.2527 66.6003 16.5575C66.4715 16.8623 66.2885 17.1333 66.0479 17.367C65.8107 17.6007 65.5193 17.7836 65.1804 17.9157C64.8382 18.0478 64.4519 18.1122 64.0147 18.1122C63.5776 18.1122 63.1608 18.0444 62.7846 17.9123C62.4085 17.7803 62.0764 17.5872 61.7951 17.3332C61.5138 17.0791 61.297 16.7777 61.1411 16.4186C60.9886 16.0596 60.9106 15.6599 60.9106 15.2128C60.9106 14.7657 60.9886 14.3627 61.1445 14.007C61.3003 13.648 61.5206 13.3432 61.8053 13.0925C62.0899 12.8419 62.422 12.6488 62.8049 12.5133C63.1879 12.3778 63.6081 12.3135 64.0655 12.3135C64.6382 12.3135 65.1398 12.4049 65.5667 12.5946C65.9971 12.7809 66.3428 13.0349 66.6071 13.3601C66.8714 13.6819 67.0307 14.0544 67.0917 14.4711H66.092C66.0378 14.2069 65.9192 13.9799 65.7362 13.7869C65.5532 13.5938 65.3228 13.4448 65.0381 13.3398C64.7534 13.2348 64.4281 13.184 64.0554 13.184C63.6182 13.184 63.2387 13.2652 62.9168 13.4278C62.5948 13.5904 62.3475 13.8207 62.1712 14.1256C61.995 14.4304 61.9069 14.7928 61.9069 15.2196C61.9069 15.6464 61.9984 16.0156 62.178 16.3238C62.3576 16.632 62.6152 16.8691 62.9506 17.0317C63.2827 17.1943 63.6758 17.279 64.1299 17.279C64.584 17.279 64.95 17.2044 65.2787 17.0554C65.6074 16.9064 65.8649 16.6998 66.0547 16.4322C66.2445 16.168 66.3462 15.8564 66.3597 15.5041L66.8002 15.5854V15.5786ZM64.3231 16.002V15.2569H67.1493V18.0072H66.4173L66.2987 15.6904L66.5291 16.002H64.3231Z" fill="white"/>
<path d="M68.2542 12.4189H69.2369V18.011H68.2542V12.4189Z" fill="white"/>
<path d="M69.9858 12.4189H75.5942V13.2827H69.9858V12.4189ZM72.2969 12.8728H73.2797V18.0077H72.2969V12.8728Z" fill="white"/>
<path d="M78.7015 12.4189L81.3854 18.011H80.3349L77.895 12.7915H78.2746L75.8347 18.011H74.7842L77.468 12.4189H78.6981H78.7015ZM76.1058 16.7273V15.9144H80.013V16.7273H76.1058Z" fill="white"/>
<path d="M83.0494 12.4189V17.5707L82.6088 17.1473H86.821V18.011H82.0632V12.4189H83.046H83.0494Z" fill="white"/>
<path d="M67.9863 2.58945L68.7454 3.19574H69.6332L68.5319 2.06445H67.4407L66.3462 3.19574H67.2273L67.9863 2.58945Z" fill="white"/>
</g>
<defs>
<clipPath id="clip0_2090_188">
<rect width="93" height="21" fill="white" transform="translate(0.5 0.5)"/>
</clipPath>
</defs>
</svg>
