<svg width="94" height="22" viewBox="0 0 94 22" fill="none" xmlns="http://www.w3.org/2000/svg">
<g clip-path="url(#clip0_4055_944)">
<path d="M0.5 21.5001H11.6828C13.9295 21.5001 15.7492 19.6812 15.7492 17.4355H0.5V21.5001Z" fill="white"/>
<path d="M3.55078 8.96777V13.0323H15.7502V17.4355H19.8166V14.0484C19.8166 11.2439 17.5394 8.96777 14.7336 8.96777H3.55078Z" fill="white"/>
<path d="M0.5 4.56452H15.7492V6.93548H19.8157V5.58065C19.8157 2.77613 17.5385 0.5 14.7326 0.5H0.5V4.56452Z" fill="white"/>
<path d="M37.4377 0.5H33.3712V17.4355H27.2715V0.5H23.2051V14.7258C23.2051 18.4685 26.238 21.5 29.9825 21.5H43.1985V17.4355H37.4377V0.5Z" fill="white"/>
<path d="M47.2637 0.5H43.1973V17.4355H47.2637V0.5Z" fill="white"/>
<path d="M55.6205 3.73047L58.3043 9.32257H57.2538L54.814 4.10305H55.1935L52.7536 9.32257H51.7031L54.387 3.73047H55.6171H55.6205ZM53.0247 8.03886V7.22595H56.9319V8.03886H53.0247Z" fill="white"/>
<path d="M64.2783 6.89108C64.2715 7.23995 64.2071 7.56511 64.0783 7.86995C63.9496 8.17479 63.7666 8.44575 63.526 8.67946C63.2888 8.91317 62.9973 9.09608 62.6585 9.22817C62.3162 9.36027 61.9299 9.42462 61.4927 9.42462C61.0556 9.42462 60.6388 9.35688 60.2626 9.22479C59.8865 9.09269 59.5544 8.89962 59.2731 8.64559C58.9919 8.39156 58.775 8.09011 58.6191 7.73108C58.4666 7.37204 58.3887 6.96898 58.3887 6.52188C58.3887 6.07479 58.4666 5.67172 58.6225 5.31269C58.7784 4.95366 58.9986 4.65221 59.2833 4.39817C59.5679 4.14753 59.9 3.95446 60.283 3.81898C60.6659 3.6835 61.0861 3.61914 61.5436 3.61914C62.1163 3.61914 62.6178 3.71398 63.0448 3.90027C63.4751 4.08656 63.8208 4.34059 64.0851 4.66575C64.3494 4.98753 64.5087 5.36011 64.5697 5.77672H63.57C63.5158 5.51253 63.3972 5.28559 63.2142 5.09253C63.0312 4.89946 62.8008 4.75043 62.5161 4.64543C62.2315 4.54043 61.9062 4.48962 61.5334 4.48962C61.0963 4.48962 60.7167 4.57091 60.3948 4.7335C60.0729 4.89608 59.8255 5.1264 59.6493 5.43124C59.4731 5.73269 59.385 6.0985 59.385 6.52527C59.385 6.95204 59.4765 7.32124 59.6561 7.62946C59.8357 7.93769 60.0932 8.17479 60.4287 8.33737C60.7608 8.49995 61.1539 8.58462 61.608 8.58462C62.062 8.58462 62.428 8.51011 62.7567 8.36108C63.0854 8.21204 63.343 8.00543 63.5327 7.73785C63.7225 7.47366 63.8242 7.16204 63.8377 6.80979L64.2783 6.89108ZM61.8011 7.31446V6.5693H64.6273V9.31963H63.8953L63.7767 7.00285L64.0072 7.31446H61.8011Z" fill="white"/>
<path d="M66.5252 8.4724V6.93805H70.2019V6.11837H66.5252V4.58063H70.3782V3.73047H65.5391V9.32257H70.4154V8.4724H66.5252Z" fill="white"/>
<path d="M76.6301 8.72644L76.2268 8.77047V3.73047H77.1824V9.32257H75.9286L72.0044 4.28257L72.4009 4.23853V9.32257H71.4453V3.73047H72.7262L76.6267 8.72305L76.6301 8.72644Z" fill="white"/>
<path d="M84.3338 7.10745C84.2829 7.56471 84.1237 7.96778 83.8526 8.32004C83.5815 8.67229 83.2257 8.94326 82.7885 9.13633C82.3514 9.32939 81.8498 9.42762 81.2907 9.42762C80.6638 9.42762 80.1148 9.30568 79.6438 9.06181C79.1728 8.81794 78.8034 8.47923 78.5391 8.04568C78.2747 7.61213 78.1426 7.10407 78.1426 6.52826C78.1426 5.95245 78.2747 5.44778 78.5391 5.01084C78.8034 4.57729 79.1694 4.2352 79.6438 3.99471C80.1148 3.75084 80.6672 3.62891 81.2907 3.62891C81.8532 3.62891 82.3514 3.72713 82.7885 3.9202C83.2257 4.11326 83.5815 4.38423 83.8526 4.7331C84.1237 5.08197 84.2829 5.48504 84.3338 5.94907H83.3409C83.2867 5.651 83.1681 5.39358 82.9851 5.1802C82.8021 4.96681 82.5682 4.80084 82.2802 4.68568C81.9922 4.57052 81.6601 4.50955 81.2805 4.50955C80.8434 4.50955 80.4639 4.59084 80.1419 4.75681C79.82 4.91939 79.5726 5.1531 79.3998 5.45794C79.227 5.76278 79.1389 6.11842 79.1389 6.53165C79.1389 6.94487 79.227 7.30052 79.3998 7.60536C79.5726 7.9102 79.82 8.14052 80.1419 8.30649C80.4639 8.46907 80.84 8.55375 81.2805 8.55375C81.6567 8.55375 81.9922 8.49616 82.2802 8.381C82.5682 8.26584 82.8021 8.09987 82.9851 7.88649C83.1681 7.66971 83.2833 7.41229 83.3409 7.11423H84.3338V7.10745Z" fill="white"/>
<path d="M85.2344 3.73047H86.2171V9.32257H85.2344V3.73047Z" fill="white"/>
<path d="M90.8119 3.73047L93.4958 9.32257H92.4452L90.0054 4.10305H90.3849L87.945 9.32257H86.8945L89.5784 3.73047H90.8085H90.8119ZM88.2161 8.03886V7.22595H92.1233V8.03886H88.2161Z" fill="white"/>
<path d="M54.8073 12.4184C55.4444 12.4184 56.0001 12.5335 56.4813 12.7672C56.9625 13.0009 57.3353 13.3261 57.603 13.7461C57.8707 14.1661 58.0062 14.6538 58.0062 15.2093C58.0062 15.7648 57.8707 16.2526 57.603 16.6726C57.3353 17.0926 56.9591 17.4177 56.4813 17.6514C56.0001 17.8851 55.4444 18.0003 54.8073 18.0003H52.2793V12.4082H54.8073V12.4184ZM53.262 17.665L52.7164 17.1434H54.8717C55.2986 17.1434 55.6748 17.0621 55.9933 16.8995C56.3119 16.7369 56.5626 16.5134 56.7389 16.2221C56.9151 15.9308 57.0032 15.5955 57.0032 15.2127C57.0032 14.83 56.9151 14.4879 56.7389 14.2C56.5626 13.9121 56.3153 13.6885 55.9933 13.5259C55.6714 13.3634 55.2986 13.2821 54.8717 13.2821H52.7164L53.262 12.7605V17.665Z" fill="white"/>
<path d="M58.9609 12.4189H59.9437V18.011H58.9609V12.4189Z" fill="white"/>
<path d="M66.7997 15.5786C66.793 15.9275 66.7286 16.2527 66.5998 16.5575C66.471 16.8623 66.288 17.1333 66.0475 17.367C65.8102 17.6007 65.5188 17.7836 65.1799 17.9157C64.8377 18.0478 64.4514 18.1122 64.0142 18.1122C63.5771 18.1122 63.1603 18.0444 62.7841 17.9123C62.408 17.7803 62.0759 17.5872 61.7946 17.3332C61.5133 17.0791 61.2965 16.7777 61.1406 16.4186C60.9881 16.0596 60.9102 15.6599 60.9102 15.2128C60.9102 14.7657 60.9881 14.3627 61.144 14.007C61.2999 13.648 61.5201 13.3432 61.8048 13.0925C62.0894 12.8419 62.4215 12.6488 62.8044 12.5133C63.1874 12.3778 63.6076 12.3135 64.0651 12.3135C64.6377 12.3135 65.1393 12.4049 65.5663 12.5946C65.9966 12.7809 66.3423 13.0349 66.6066 13.3601C66.8709 13.6819 67.0302 14.0544 67.0912 14.4711H66.0915C66.0373 14.2069 65.9187 13.9799 65.7357 13.7869C65.5527 13.5938 65.3223 13.4448 65.0376 13.3398C64.753 13.2348 64.4276 13.184 64.0549 13.184C63.6177 13.184 63.2382 13.2652 62.9163 13.4278C62.5943 13.5904 62.347 13.8207 62.1708 14.1256C61.9945 14.4304 61.9064 14.7928 61.9064 15.2196C61.9064 15.6464 61.9979 16.0156 62.1775 16.3238C62.3571 16.632 62.6147 16.8691 62.9502 17.0317C63.2823 17.1943 63.6754 17.279 64.1294 17.279C64.5835 17.279 64.9495 17.2044 65.2782 17.0554C65.6069 16.9064 65.8645 16.6998 66.0542 16.4322C66.244 16.168 66.3457 15.8564 66.3592 15.5041L66.7997 15.5854V15.5786ZM64.3226 16.002V15.2569H67.1488V18.0072H66.4168L66.2982 15.6904L66.5287 16.002H64.3226Z" fill="white"/>
<path d="M68.2539 12.4189H69.2366V18.011H68.2539V12.4189Z" fill="white"/>
<path d="M69.9844 12.4189H75.5927V13.2827H69.9844V12.4189ZM72.2955 12.8728H73.2782V18.0077H72.2955V12.8728Z" fill="white"/>
<path d="M78.7006 12.4189L81.3844 18.011H80.3339L77.894 12.7915H78.2736L75.8337 18.011H74.7832L77.4671 12.4189H78.6972H78.7006ZM76.1048 16.7273V15.9144H80.012V16.7273H76.1048Z" fill="white"/>
<path d="M83.0486 12.4189V17.5707L82.6081 17.1473H86.8203V18.011H82.0625V12.4189H83.0452H83.0486Z" fill="white"/>
<path d="M67.9858 2.58945L68.7449 3.19574H69.6328L68.5314 2.06445H67.4403L66.3457 3.19574H67.2268L67.9858 2.58945Z" fill="white"/>
</g>
<defs>
<clipPath id="clip0_4055_944">
<rect width="93" height="21" fill="white" transform="translate(0.5 0.5)"/>
</clipPath>
</defs>
</svg>
