<svg width="24" height="25" viewBox="0 0 24 25" fill="none" xmlns="http://www.w3.org/2000/svg">
<rect y="0.5" width="24" height="24" rx="12" fill="white"/>
<path d="M18.9882 9.06471C18.8235 8.45294 18.3412 7.97059 17.7294 7.80588C16.6118 7.5 12.1412 7.5 12.1412 7.5C12.1412 7.5 7.67059 7.5 6.55294 7.79412C5.95294 7.95882 5.45882 8.45294 5.29412 9.06471C5 10.1824 5 12.5 5 12.5C5 12.5 5 14.8294 5.29412 15.9353C5.45882 16.5471 5.94118 17.0294 6.55294 17.1941C7.68235 17.5 12.1412 17.5 12.1412 17.5C12.1412 17.5 16.6118 17.5 17.7294 17.2059C18.3412 17.0412 18.8235 16.5588 18.9882 15.9471C19.2824 14.8294 19.2824 12.5118 19.2824 12.5118C19.2824 12.5118 19.2941 10.1824 18.9882 9.06471Z" fill="#003DA5"/>
<path d="M10.7178 14.6412L14.4354 12.5001L10.7178 10.3589V14.6412Z" fill="white"/>
</svg>
