<svg width="41" height="40" viewBox="0 0 41 40" fill="none" xmlns="http://www.w3.org/2000/svg">
<path fill-rule="evenodd" clip-rule="evenodd" d="M3.83398 16.5457C3.83398 7.4312 11.2721 0 20.5007 0C29.7292 0 37.1673 7.4312 37.1673 16.5457C37.1673 20.9459 35.8835 25.6705 33.6139 29.7523C31.3471 33.8291 28.0352 37.3716 23.8921 39.2631C21.7398 40.2457 19.2615 40.2457 17.1092 39.2631C12.9661 37.3716 9.65421 33.8291 7.38742 29.7523C5.11785 25.6705 3.83398 20.9459 3.83398 16.5457ZM20.5007 2.7907C12.8977 2.7907 6.69113 8.92555 6.69113 16.5457C6.69113 20.4472 7.839 24.717 9.89818 28.4204C11.9602 32.1288 14.874 35.1621 18.319 36.7349C19.7046 37.3674 21.2967 37.3674 22.6823 36.7349C26.1273 35.1621 29.0411 32.1288 31.1031 28.4204C33.1623 24.717 34.3102 20.4472 34.3102 16.5457C34.3102 8.92555 28.1036 2.7907 20.5007 2.7907Z" fill="white"/>
<path fill-rule="evenodd" clip-rule="evenodd" d="M20.5007 11.3335C18.2915 11.3335 16.5007 13.3482 16.5007 15.8335C16.5007 18.3188 18.2915 20.3335 20.5007 20.3335C22.7098 20.3335 24.5007 18.3188 24.5007 15.8335C24.5007 13.3482 22.7098 11.3335 20.5007 11.3335ZM13.834 15.8335C13.834 11.6914 16.8188 8.3335 20.5007 8.3335C24.1825 8.3335 27.1673 11.6914 27.1673 15.8335C27.1673 19.9756 24.1825 23.3335 20.5007 23.3335C16.8188 23.3335 13.834 19.9756 13.834 15.8335Z" fill="white"/>
</svg>
